ffmpeg started on 2025-06-07 at 15:00:20
Report written to "D:\Convert\FFMetrics\reports\psnr_report-6.txt"
Log level: 32
Command line:
ffmpeg -hide_banner -nostdin -i "G:\\\xc0\xed\xe8\xec\xe5\\\xce\xed\xe3\xee\xe8\xed\xe3\xe8\\!_36_\xce\xf1\xe5\xed\xfc_2024\\DreamCast\\\xd1\xee\xe1\xeb\xe0\xe7\xed 2,5-\xec\xe5\xf0\xed\xee\xe3\xee \xe8\xe7\xec\xe5\xf0\xe5\xed\xe8\xff\\[DC] 2-5 Jigen no Ririsa - 04_Telegram_HEVC.mkv" -i "G:\\\xc0\xed\xe8\xec\xe5\\\xce\xed\xe3\xee\xe8\xed\xe3\xe8\\!_36_\xce\xf1\xe5\xed\xfc_2024\\DreamCast\\\xd1\xee\xe1\xeb\xe0\xe7\xed 2,5-\xec\xe5\xf0\xed\xee\xe3\xee \xe8\xe7\xec\xe5\xf0\xe5\xed\xe8\xff\\[DC] 2-5 Jigen no Ririsa - 04_Telegram.mp4" -lavfi "[0:v]settb=AVTB,setpts=PTS-STARTPTS,format=pix_fmts=yuv420p10,fps=24/1,scale=1920:1080:flags=bicubic[main];[1:v]settb=AVTB,setpts=PTS-STARTPTS,format=pix_fmts=yuv420p,fps=24/1,scale=1920:1080:flags=bicubic[ref];[main][ref]psnr=eof_action=endall:stats_file='D\\:/Convert/FFMetrics/logs/psnr_logfile-6.txt'" -f null -
Input #0, matroska,webm, from 'G:\Аниме\Онгоинги\!_36_Осень_2024\DreamCast\Соблазн 2,5-мерного измерения\[DC] 2-5 Jigen no Ririsa - 04_Telegram_HEVC.mkv':
  Metadata:
    COMPATIBLE_BRANDS: isomiso2avc1mp41
    MAJOR_BRAND     : isom
    MINOR_VERSION   : 512
    ENCODER         : Lavf61.7.100
  Duration: 00:24:08.11, start: -0.021000, bitrate: 1273 kb/s
  Stream #0:0: Video: hevc (Main 10), yuv420p10le(tv, bt709, progressive), 1920x1080 [SAR 1:1 DAR 16:9], 24 fps, 24 tbr, 1k tbn (default)
      Metadata:
        HANDLER_NAME    : VideoHandler
        VENDOR_ID       : [0][0][0][0]
        ENCODER         : Lavc61.19.100 libx265
        BPS             : 1076969
        DURATION        : 00:24:07.999666666
        NUMBER_OF_FRAMES: 34752
        NUMBER_OF_BYTES : 194931261
        _STATISTICS_WRITING_APP: mkvpropedit v66.0.0 ('Josie') 64-bit
        _STATISTICS_WRITING_DATE_UTC: 2025-06-04 09:57:18
        _STATISTICS_TAGS: BPS DURATION NUMBER_OF_FRAMES NUMBER_OF_BYTES
  Stream #0:1: Audio: aac (LC), 48000 Hz, stereo, fltp (default)
      Metadata:
        HANDLER_NAME    : SoundHandler
        VENDOR_ID       : [0][0][0][0]
        ENCODER         : Lavc61.19.100 aac
        BPS             : 192990
        DURATION        : 00:24:08.106000000
        NUMBER_OF_FRAMES: 67881
        NUMBER_OF_BYTES : 34933915
        _STATISTICS_WRITING_APP: mkvpropedit v66.0.0 ('Josie') 64-bit
        _STATISTICS_WRITING_DATE_UTC: 2025-06-04 09:57:18
        _STATISTICS_TAGS: BPS DURATION NUMBER_OF_FRAMES NUMBER_OF_BYTES
Input #1, mov,mp4,m4a,3gp,3g2,mj2, from 'G:\Аниме\Онгоинги\!_36_Осень_2024\DreamCast\Соблазн 2,5-мерного измерения\[DC] 2-5 Jigen no Ririsa - 04_Telegram.mp4':
  Metadata:
    major_brand     : isom
    minor_version   : 512
    compatible_brands: isomiso2avc1mp41
    encoder         : Lavf61.1.100
  Duration: 00:24:08.07, start: 0.000000, bitrate: 3682 kb/s
  Stream #1:0[0x1](und): Video: h264 (High) (avc1 / 0x31637661), yuv420p(tv, bt709, progressive), 1920x1080 [SAR 1:1 DAR 16:9], 3534 kb/s, 24 fps, 24 tbr, 12288 tbn (default)
      Metadata:
        handler_name    : VideoHandler
        vendor_id       : [0][0][0][0]
        encoder         : Lavc61.3.100 h264_qsv
  Stream #1:1[0x2](und): Audio: aac (HE-AACv2) (mp4a / 0x6134706D), 48000 Hz, stereo, fltp, 144 kb/s (default)
      Metadata:
        handler_name    : SoundHandler
        vendor_id       : [0][0][0][0]
Stream mapping:
  Stream #0:0 (hevc) -> settb:default
  Stream #1:0 (h264) -> settb:default
  psnr:default -> Stream #0:0 (wrapped_avframe)
  Stream #0:1 -> #0:1 (aac (native) -> pcm_s16le (native))
Output #0, null, to 'pipe:':
  Metadata:
    COMPATIBLE_BRANDS: isomiso2avc1mp41
    MAJOR_BRAND     : isom
    MINOR_VERSION   : 512
    encoder         : Lavf61.7.100
  Stream #0:0: Video: wrapped_avframe, yuv420p10le(tv, bt709, progressive), 1920x1080 [SAR 1:1 DAR 16:9], q=2-31, 200 kb/s, 24 fps, 24 tbn
      Metadata:
        encoder         : Lavc61.19.100 wrapped_avframe
  Stream #0:1: Audio: pcm_s16le, 48000 Hz, stereo, s16, 1536 kb/s (default)
      Metadata:
        HANDLER_NAME    : SoundHandler
        VENDOR_ID       : [0][0][0][0]
        _STATISTICS_TAGS: BPS DURATION NUMBER_OF_FRAMES NUMBER_OF_BYTES
        BPS             : 192990
        DURATION        : 00:24:08.106000000
        NUMBER_OF_FRAMES: 67881
        NUMBER_OF_BYTES : 34933915
        _STATISTICS_WRITING_APP: mkvpropedit v66.0.0 ('Josie') 64-bit
        _STATISTICS_WRITING_DATE_UTC: 2025-06-04 09:57:18
        encoder         : Lavc61.19.100 pcm_s16le
frame=  184 fps=0.0 q=-0.0 size=N/A time=00:00:07.66 bitrate=N/A speed=15.1x    frame=  442 fps=428 q=-0.0 size=N/A time=00:00:18.41 bitrate=N/A speed=17.8x    frame=  718 fps=465 q=-0.0 size=N/A time=00:00:29.91 bitrate=N/A speed=19.4x    frame=  927 fps=451 q=-0.0 size=N/A time=00:00:38.62 bitrate=N/A speed=18.8x    frame= 1127 fps=437 q=-0.0 size=N/A time=00:00:46.95 bitrate=N/A speed=18.2x    frame= 1341 fps=434 q=-0.0 size=N/A time=00:00:55.87 bitrate=N/A speed=18.1x    frame= 1570 fps=435 q=-0.0 size=N/A time=00:01:05.41 bitrate=N/A speed=18.1x    frame= 1758 fps=427 q=-0.0 size=N/A time=00:01:13.25 bitrate=N/A speed=17.8x    frame= 1982 fps=427 q=-0.0 size=N/A time=00:01:22.58 bitrate=N/A speed=17.8x    frame= 2184 fps=425 q=-0.0 size=N/A time=00:01:31.00 bitrate=N/A speed=17.7x    frame= 2379 fps=420 q=-0.0 size=N/A time=00:01:39.12 bitrate=N/A speed=17.5x    frame= 2582 fps=417 q=-0.0 size=N/A time=00:01:47.58 bitrate=N/A speed=17.4x    frame= 2785 fps=416 q=-0.0 size=N/A time=00:01:56.04 bitrate=N/A speed=17.3x    frame= 2986 fps=414 q=-0.0 size=N/A time=00:02:04.41 bitrate=N/A speed=17.2x    frame= 3257 fps=422 q=-0.0 size=N/A time=00:02:15.75 bitrate=N/A speed=17.6x    frame= 3514 fps=426 q=-0.0 size=N/A time=00:02:26.41 bitrate=N/A speed=17.8x    frame= 3780 fps=431 q=-0.0 size=N/A time=00:02:37.50 bitrate=N/A speed=  18x    frame= 4018 fps=433 q=-0.0 size=N/A time=00:02:47.41 bitrate=N/A speed=  18x    frame= 4260 fps=435 q=-0.0 size=N/A time=00:02:57.50 bitrate=N/A speed=18.1x    frame= 4498 fps=436 q=-0.0 size=N/A time=00:03:07.41 bitrate=N/A speed=18.2x    frame= 4739 fps=438 q=-0.0 size=N/A time=00:03:17.45 bitrate=N/A speed=18.2x    frame= 4982 fps=439 q=-0.0 size=N/A time=00:03:27.58 bitrate=N/A speed=18.3x    frame= 5240 fps=442 q=-0.0 size=N/A time=00:03:38.33 bitrate=N/A speed=18.4x    frame= 5413 fps=438 q=-0.0 size=N/A time=00:03:45.54 bitrate=N/A speed=18.2x    frame= 5653 fps=439 q=-0.0 size=N/A time=00:03:55.54 bitrate=N/A speed=18.3x    frame= 5882 fps=439 q=-0.0 size=N/A time=00:04:05.08 bitrate=N/A speed=18.3x    frame= 6123 fps=440 q=-0.0 size=N/A time=00:04:15.12 bitrate=N/A speed=18.3x    frame= 6354 fps=440 q=-0.0 size=N/A time=00:04:24.75 bitrate=N/A speed=18.3x    frame= 6586 fps=441 q=-0.0 size=N/A time=00:04:34.41 bitrate=N/A speed=18.4x    frame= 6847 fps=443 q=-0.0 size=N/A time=00:04:45.29 bitrate=N/A speed=18.4x    frame= 7090 fps=444 q=-0.0 size=N/A time=00:04:55.41 bitrate=N/A speed=18.5x    frame= 7343 fps=445 q=-0.0 size=N/A time=00:05:05.95 bitrate=N/A speed=18.5x    frame= 7600 fps=447 q=-0.0 size=N/A time=00:05:16.66 bitrate=N/A speed=18.6x    frame= 7833 fps=447 q=-0.0 size=N/A time=00:05:26.37 bitrate=N/A speed=18.6x    frame= 8086 fps=448 q=-0.0 size=N/A time=00:05:36.91 bitrate=N/A speed=18.7x    frame= 8334 fps=449 q=-0.0 size=N/A time=00:05:47.25 bitrate=N/A speed=18.7x    frame= 8608 fps=451 q=-0.0 size=N/A time=00:05:58.66 bitrate=N/A speed=18.8x    frame= 8836 fps=451 q=-0.0 size=N/A time=00:06:08.16 bitrate=N/A speed=18.8x    frame= 9078 fps=452 q=-0.0 size=N/A time=00:06:18.25 bitrate=N/A speed=18.8x    frame= 9276 fps=450 q=-0.0 size=N/A time=00:06:26.50 bitrate=N/A speed=18.7x    frame= 9501 fps=450 q=-0.0 size=N/A time=00:06:35.87 bitrate=N/A speed=18.7x    frame= 9754 fps=451 q=-0.0 size=N/A time=00:06:46.41 bitrate=N/A speed=18.8x    frame=10005 fps=451 q=-0.0 size=N/A time=00:06:56.87 bitrate=N/A speed=18.8x    frame=10277 fps=453 q=-0.0 size=N/A time=00:07:08.20 bitrate=N/A speed=18.9x    frame=10517 fps=453 q=-0.0 size=N/A time=00:07:18.20 bitrate=N/A speed=18.9x    frame=10730 fps=452 q=-0.0 size=N/A time=00:07:27.08 bitrate=N/A speed=18.9x    frame=10963 fps=453 q=-0.0 size=N/A time=00:07:36.79 bitrate=N/A speed=18.9x    frame=11232 fps=454 q=-0.0 size=N/A time=00:07:48.00 bitrate=N/A speed=18.9x    frame=11487 fps=455 q=-0.0 size=N/A time=00:07:58.62 bitrate=N/A speed=18.9x    frame=11739 fps=455 q=-0.0 size=N/A time=00:08:09.12 bitrate=N/A speed=  19x    frame=12004 fps=457 q=-0.0 size=N/A time=00:08:20.16 bitrate=N/A speed=  19x    frame=12263 fps=458 q=-0.0 size=N/A time=00:08:30.95 bitrate=N/A speed=19.1x    frame=12523 fps=458 q=-0.0 size=N/A time=00:08:41.79 bitrate=N/A speed=19.1x    frame=12801 fps=460 q=-0.0 size=N/A time=00:08:53.37 bitrate=N/A speed=19.2x    frame=13032 fps=460 q=-0.0 size=N/A time=00:09:03.00 bitrate=N/A speed=19.2x    frame=13294 fps=460 q=-0.0 size=N/A time=00:09:13.91 bitrate=N/A speed=19.2x    frame=13542 fps=461 q=-0.0 size=N/A time=00:09:24.25 bitrate=N/A speed=19.2x    frame=13820 fps=462 q=-0.0 size=N/A time=00:09:35.83 bitrate=N/A speed=19.3x    frame=14092 fps=463 q=-0.0 size=N/A time=00:09:47.16 bitrate=N/A speed=19.3x    frame=14359 fps=464 q=-0.0 size=N/A time=00:09:58.29 bitrate=N/A speed=19.3x    frame=14602 fps=464 q=-0.0 size=N/A time=00:10:08.41 bitrate=N/A speed=19.3x    frame=14838 fps=464 q=-0.0 size=N/A time=00:10:18.25 bitrate=N/A speed=19.3x    frame=15107 fps=465 q=-0.0 size=N/A time=00:10:29.45 bitrate=N/A speed=19.4x    frame=15349 fps=465 q=-0.0 size=N/A time=00:10:39.54 bitrate=N/A speed=19.4x    frame=15604 fps=466 q=-0.0 size=N/A time=00:10:50.16 bitrate=N/A speed=19.4x    frame=15866 fps=466 q=-0.0 size=N/A time=00:11:01.08 bitrate=N/A speed=19.4x    frame=16116 fps=467 q=-0.0 size=N/A time=00:11:11.50 bitrate=N/A speed=19.4x    frame=16331 fps=466 q=-0.0 size=N/A time=00:11:20.45 bitrate=N/A speed=19.4x    frame=16588 fps=466 q=-0.0 size=N/A time=00:11:31.16 bitrate=N/A speed=19.4x    frame=16837 fps=467 q=-0.0 size=N/A time=00:11:41.54 bitrate=N/A speed=19.4x    frame=17098 fps=467 q=-0.0 size=N/A time=00:11:52.41 bitrate=N/A speed=19.5x    frame=17364 fps=468 q=-0.0 size=N/A time=00:12:03.50 bitrate=N/A speed=19.5x    frame=17618 fps=468 q=-0.0 size=N/A time=00:12:14.08 bitrate=N/A speed=19.5x    frame=17853 fps=468 q=-0.0 size=N/A time=00:12:23.87 bitrate=N/A speed=19.5x    frame=18079 fps=468 q=-0.0 size=N/A time=00:12:33.29 bitrate=N/A speed=19.5x    frame=18343 fps=468 q=-0.0 size=N/A time=00:12:44.29 bitrate=N/A speed=19.5x    frame=18605 fps=469 q=-0.0 size=N/A time=00:12:55.20 bitrate=N/A speed=19.5x    frame=18855 fps=469 q=-0.0 size=N/A time=00:13:05.62 bitrate=N/A speed=19.5x    frame=19085 fps=469 q=-0.0 size=N/A time=00:13:15.20 bitrate=N/A speed=19.5x    frame=19305 fps=468 q=-0.0 size=N/A time=00:13:24.37 bitrate=N/A speed=19.5x    frame=19584 fps=469 q=-0.0 size=N/A time=00:13:36.00 bitrate=N/A speed=19.5x    frame=19802 fps=468 q=-0.0 size=N/A time=00:13:45.08 bitrate=N/A speed=19.5x    frame=20055 fps=469 q=-0.0 size=N/A time=00:13:55.62 bitrate=N/A speed=19.5x    frame=20274 fps=468 q=-0.0 size=N/A time=00:14:04.75 bitrate=N/A speed=19.5x    frame=20523 fps=468 q=-0.0 size=N/A time=00:14:15.12 bitrate=N/A speed=19.5x    frame=20761 fps=468 q=-0.0 size=N/A time=00:14:25.04 bitrate=N/A speed=19.5x    frame=21021 fps=469 q=-0.0 size=N/A time=00:14:35.87 bitrate=N/A speed=19.5x    frame=21290 fps=469 q=-0.0 size=N/A time=00:14:47.08 bitrate=N/A speed=19.6x    frame=21538 fps=469 q=-0.0 size=N/A time=00:14:57.41 bitrate=N/A speed=19.6x    frame=21769 fps=469 q=-0.0 size=N/A time=00:15:07.04 bitrate=N/A speed=19.5x    frame=22016 fps=469 q=-0.0 size=N/A time=00:15:17.33 bitrate=N/A speed=19.5x    frame=22272 fps=470 q=-0.0 size=N/A time=00:15:28.00 bitrate=N/A speed=19.6x    frame=22515 fps=470 q=-0.0 size=N/A time=00:15:38.12 bitrate=N/A speed=19.6x    frame=22800 fps=470 q=-0.0 size=N/A time=00:15:50.04 bitrate=N/A speed=19.6x    frame=23090 fps=471 q=-0.0 size=N/A time=00:16:02.08 bitrate=N/A speed=19.6x    frame=23373 fps=472 q=-0.0 size=N/A time=00:16:13.87 bitrate=N/A speed=19.7x    frame=23637 fps=473 q=-0.0 size=N/A time=00:16:24.87 bitrate=N/A speed=19.7x    frame=23872 fps=472 q=-0.0 size=N/A time=00:16:34.66 bitrate=N/A speed=19.7x    frame=24118 fps=473 q=-0.0 size=N/A time=00:16:44.91 bitrate=N/A speed=19.7x    frame=24361 fps=472 q=-0.0 size=N/A time=00:16:55.04 bitrate=N/A speed=19.7x    frame=24642 fps=473 q=-0.0 size=N/A time=00:17:06.75 bitrate=N/A speed=19.7x    frame=24887 fps=473 q=-0.0 size=N/A time=00:17:16.95 bitrate=N/A speed=19.7x    frame=25159 fps=474 q=-0.0 size=N/A time=00:17:28.29 bitrate=N/A speed=19.7x    frame=25432 fps=474 q=-0.0 size=N/A time=00:17:39.66 bitrate=N/A speed=19.8x    frame=25693 fps=474 q=-0.0 size=N/A time=00:17:50.54 bitrate=N/A speed=19.8x    frame=25951 fps=475 q=-0.0 size=N/A time=00:18:01.29 bitrate=N/A speed=19.8x    frame=26203 fps=475 q=-0.0 size=N/A time=00:18:11.79 bitrate=N/A speed=19.8x    frame=26443 fps=475 q=-0.0 size=N/A time=00:18:21.79 bitrate=N/A speed=19.8x    frame=26659 fps=474 q=-0.0 size=N/A time=00:18:30.79 bitrate=N/A speed=19.8x    frame=26890 fps=474 q=-0.0 size=N/A time=00:18:40.41 bitrate=N/A speed=19.8x    frame=27115 fps=474 q=-0.0 size=N/A time=00:18:49.79 bitrate=N/A speed=19.7x    frame=27382 fps=474 q=-0.0 size=N/A time=00:19:00.91 bitrate=N/A speed=19.8x    frame=27664 fps=475 q=-0.0 size=N/A time=00:19:12.66 bitrate=N/A speed=19.8x    frame=27917 fps=475 q=-0.0 size=N/A time=00:19:23.20 bitrate=N/A speed=19.8x    frame=28168 fps=475 q=-0.0 size=N/A time=00:19:33.66 bitrate=N/A speed=19.8x    frame=28394 fps=475 q=-0.0 size=N/A time=00:19:43.08 bitrate=N/A speed=19.8x    frame=28606 fps=474 q=-0.0 size=N/A time=00:19:51.91 bitrate=N/A speed=19.8x    frame=28788 fps=473 q=-0.0 size=N/A time=00:19:59.50 bitrate=N/A speed=19.7x    frame=28994 fps=472 q=-0.0 size=N/A time=00:20:08.08 bitrate=N/A speed=19.7x    frame=29222 fps=472 q=-0.0 size=N/A time=00:20:17.58 bitrate=N/A speed=19.7x    frame=29484 fps=472 q=-0.0 size=N/A time=00:20:28.50 bitrate=N/A speed=19.7x    frame=29734 fps=473 q=-0.0 size=N/A time=00:20:38.95 bitrate=N/A speed=19.7x    frame=30019 fps=473 q=-0.0 size=N/A time=00:20:50.79 bitrate=N/A speed=19.7x    frame=30245 fps=473 q=-0.0 size=N/A time=00:21:00.20 bitrate=N/A speed=19.7x    frame=30452 fps=472 q=-0.0 size=N/A time=00:21:08.83 bitrate=N/A speed=19.7x    frame=30648 fps=472 q=-0.0 size=N/A time=00:21:17.00 bitrate=N/A speed=19.7x    frame=30894 fps=472 q=-0.0 size=N/A time=00:21:27.25 bitrate=N/A speed=19.7x    frame=31166 fps=472 q=-0.0 size=N/A time=00:21:38.58 bitrate=N/A speed=19.7x    frame=31417 fps=472 q=-0.0 size=N/A time=00:21:49.04 bitrate=N/A speed=19.7x    frame=31677 fps=473 q=-0.0 size=N/A time=00:21:59.87 bitrate=N/A speed=19.7x    frame=31959 fps=473 q=-0.0 size=N/A time=00:22:11.62 bitrate=N/A speed=19.7x    frame=32191 fps=473 q=-0.0 size=N/A time=00:22:21.29 bitrate=N/A speed=19.7x    frame=32395 fps=472 q=-0.0 size=N/A time=00:22:29.79 bitrate=N/A speed=19.7x    frame=32625 fps=472 q=-0.0 size=N/A time=00:22:39.37 bitrate=N/A speed=19.7x    frame=32834 fps=472 q=-0.0 size=N/A time=00:22:48.08 bitrate=N/A speed=19.7x    frame=33015 fps=471 q=-0.0 size=N/A time=00:22:55.62 bitrate=N/A speed=19.6x    frame=33210 fps=470 q=-0.0 size=N/A time=00:23:03.75 bitrate=N/A speed=19.6x    frame=33398 fps=469 q=-0.0 size=N/A time=00:23:11.58 bitrate=N/A speed=19.6x    frame=33577 fps=468 q=-0.0 size=N/A time=00:23:19.04 bitrate=N/A speed=19.5x    frame=33806 fps=468 q=-0.0 size=N/A time=00:23:28.58 bitrate=N/A speed=19.5x    frame=34015 fps=468 q=-0.0 size=N/A time=00:23:37.29 bitrate=N/A speed=19.5x    frame=34211 fps=467 q=-0.0 size=N/A time=00:23:45.45 bitrate=N/A speed=19.5x    frame=34378 fps=466 q=-0.0 size=N/A time=00:23:52.41 bitrate=N/A speed=19.4x    frame=34571 fps=466 q=-0.0 size=N/A time=00:24:00.45 bitrate=N/A speed=19.4x    [Parsed_psnr_10 @ 0000018cbbe68300] PSNR y:47.484832 u:50.844495 v:50.313729 average:48.291714 min:41.493316 max:inf
[out#0/null @ 0000018caee14a40] video:14932KiB audio:271524KiB subtitle:0KiB other streams:0KiB global headers:0KiB muxing overhead: unknown
frame=34752 fps=466 q=-0.0 Lsize=N/A time=00:24:08.00 bitrate=N/A speed=19.4x    
